<svg width="215" height="65" viewBox="0 0 215 65" fill="none" xmlns="http://www.w3.org/2000/svg">
    <path fill-rule="evenodd" clip-rule="evenodd" d="M0 16.878L17.986 0H6.469C2.896 0 0 2.91 0 6.5V16.878Z" fill="#FF3215"/>
    <path d="M215 32.262C215.002 30.965 214.615 29.697 213.891 28.6212C213.166 27.5454 212.137 26.7109 210.934 26.225C210.481 25.889 210.056 25.595 209.706 25.365C205.447 22.319 201.182 19.2807 196.912 16.25C195.041 14.93 194.401 13.373 194.265 12.323V6.5C194.265 2.91 191.368 0 187.796 0H19.751L0 18.534V58.5C0 62.09 2.896 65 6.469 65H208.531C212.104 65 215 62.09 215 58.5V32.262Z" fill="#D9D9D9"/>
    <path d="M13.5457 47.8764V55.9731C13.5457 56.7602 15.0031 56.7786 15.0031 55.9731V47.8764C15.0031 46.9642 13.5457 46.9641 13.5457 47.8764Z" stroke="black"/>
    <path d="M8.99298 48.9299V54.8966C8.99299 55.4767 10.4504 55.4902 10.4504 54.8966V48.9299C10.4504 48.2577 8.99298 48.2577 8.99298 48.9299Z" stroke="black"/>
    <path d="M17.9055 48.9299V54.8966C17.9055 55.4767 19.3629 55.4902 19.3629 54.8966V48.9299C19.3629 48.2577 17.9055 48.2577 17.9055 48.9299Z" stroke="black"/>

    <text x="50" y="40" font-size="24" fill="black">Text here</text>
</svg>
