<svg width="215" height="65" viewBox="0 0 215 65" fill="none" xmlns="http://www.w3.org/2000/svg">
    <g clip-path="url(#clip0_40_80)">
        <path fill-rule="evenodd" clip-rule="evenodd" d="M0 16.9L18 0H6.5C2.9 0 0 2.9 0 6.5V16.9Z"
            fill="#FF3215" />
        <mask id="mask0_40_80" style="mask-type:luminance" maskUnits="userSpaceOnUse" x="0" y="0"
            width="216" height="65">
            <path
                d="M215 32.3C215 29.6 213.4 27.3 210.9 26.3C210.4 26 210 25.7 209.7 25.4C205.4 22.4 201.2 19.3 196.9 16.3C195 15 194.4 13.4 194.3 12.4V6.59998C194.3 2.99998 191.4 0.0999756 187.8 0.0999756H19.8L0 18.5V58.5C0 62.1 2.9 65 6.5 65H208.6C212.2 65 215.1 62.1 215.1 58.5V32.3H215Z"
                fill="white" />
        </mask>
        <g mask="url(#mask0_40_80)">
            <path
                d="M218.7 164.7V-171.1H-3.69995V164.7H218.7ZM187 -22.7L189 -11L205.2 -21.5L187 -22.8V-22.7Z"
                fill="#101E2C" />
            <path
                d="M27.8 -44L-3.39995 -71.5V-59.7L25.3 -37.7L105.5 -47.9L128.2 -14.5L109.7 -0.90004L56 -27.9L22.5 23.8L-3.29995 -7.70004V6.89996L-3.49995 51.9L-3.69995 111.3L6.10005 98.4L12.9 110.5L25 95.5L16 94.4L29 88.7L46.7001 56.6L50 82.5L65.2 73.8L48 95.2L44.1 84.8L35.9001 95.5L42.9001 107.3L46.2001 105.6L33.9001 129.3L36.8 111.6L22.2001 120.6L24.7001 109.7L10.3 124.4L17.3 124.9L-3.59995 140.9V164.7H161.9L147.6 139.7L169.5 157.1L165.5 145.6L176.7 151.7L192.5 122.1L194.7 131.1L204.5 122.6L218.7 92.2V84.4C218.6 84.4 200.4 119.3 200.4 119.3V102.5L173.6 131.5L161 122L186 96.9L173.7 119.7L189.8 109L200.4 92.5999L206.8 95.5L218.6 71.6V55.6L189.1 0.699951L218.6 -16.5V-30.8H174.8L188 41.5L117.6 3.29996L139 -10L112.2 -55.5L60.7001 -47.6L-0.899951 -110.1L90.8 -85.3L139.5 -125.3L169.1 -56.3L193.6 -97.4L191.9 -62.8L208.3 -94.1L217.6 -41L218.7 -45V-101.3L189.9 -112.8L169.6 -76.3L137.2 -170.5H122L133.8 -132.6L86.2 -95.2L18.6 -111.5L-1.99995 -170.9H-3.69995C-3.69995 -171 -3.69995 -102.8 -3.69995 -102.8L51.7001 -46.9L27.8 -44ZM186 -5.20004L183.1 -26.8L214.8 -24.3L186.1 -5.20004H186ZM125.9 144L123.3 150.6L8.60005 161.7V158.7L31.6 153.1L56.1 136.6V153.1L99.1 134.5L84.9 150.7L125.9 144.1V144Z"
                fill="#101824" />
            <path d="M218.5 -13.5001L201.5 6.49994L218.5 30.6999V-13.5001Z" fill="#101824" />
            <path
                d="M-3.39995 51.9L-0.199951 89.1L19.3 92.6L51.7001 38.8L55.4001 70.9L71.5 51.1L93.8 71.1L58.2001 110.9L69.4 79.5L46.6 104.4L52.4001 130.7L18.2001 149.3L26.1 126.7L4.88758e-05 149.2L-1.59995 164.8H6.80005C6.80005 164.7 6.80005 164.7 6.80005 164.7H12.8L153.1 162.4L137.7 128.9L172.6 145.9L194.5 115.2L174 138.2L152.4 124.2L192 84.4L186 107.9L194.6 97.4L197.4 86.7L218.6 66.7L186.7 5.49998L198.8 54.1L127.1 114.1L68.5 117.8L122.3 56.6L56.2001 -5.20002L117.5 40L115.9 28.4L144.5 58L134 55L109.6 102.5L94.2 107.4L113.5 106.9L165.2 64.8L142.4 40.8L177.5 56.2L57.6 -8.80002L69.9 -9.40002L58.5 -18.4L12.6 54.2L3.00005 32.5L15.1 34.9L-3.29995 6.89997L-3.69995 6.29998V48.4L-3.39995 51.9ZM8.60005 158.7L31.6 153.1L56.1 136.6V153.1L99.1 134.5L84.9 150.7L125.9 144.1L123.3 150.7L8.60005 161.8V158.8V158.7ZM130.8 116.9L160.8 91L138.1 121.8L98.2 138.6L119.6 122.3L62.2001 142.8L59.1 125.3L130.8 117V116.9Z"
                fill="#101F30" />
            <path
                d="M199 -63.6L184 -52.8L185.7 -79.7L166.2 -45.9L151.3 -81.9L148.4 -63.5L132.8 -45.8L130.6 -62.9L125 -44.4L153 4.19997L141.6 -3.20002L128 4.09998L182.3 33.6L166.5 -34.7L190.1 -34.8L177.2 -42L211.9 -39L199 -63.6Z"
                fill="#101F30" />
            <path
                d="M18 0.199963L7.70005 -3.20004L23.1 13.7L33.5 -3.20004L24.5 -11H37.1L45.8 -23.2L31.5 -25.1L62.5 -39.5L22.8 -28.5L-3.69995 -49.6V-24.2L18 0.199963Z"
                fill="#101F30" />
            <path
                d="M17 -6.30004L20.9 1.79996H15L23 8.39996L29.8 -2.10004L19.9 -13.3L35 -14L37.7001 -19.2L20.9 -24.3L-3.69995 -45.6V-27.5L17 -6.30004Z"
                fill="#14304C" />
            <path
                d="M152.8 -58.7L138.4 -35.8L168.5 15.6L144.3 4.09995L141.2 8.39996L178.9 29.1L154.1 -70.8L152.8 -58.7Z"
                fill="#14304C" />
            <path d="M210.8 60.6L199.9 42.9L203.7 57.1L165.3 89.9L210.8 60.6Z" fill="#14304C" />
            <path
                d="M7.19995 29.5L-2.30005 22.1L1.39995 86.3L13.7 87.7L52.4 11.9L11.7 61.3L0.599951 34.9L0.999951 29.7L7.19995 29.5Z"
                fill="#14304C" />
            <path d="M65.5 35.5999L65.4 40.7999L74 25.1L55.7 1.19995L57.2 60.0999L65.5 35.5999Z"
                fill="#14304C" />
            <path d="M97.6999 78.0999L114.8 59.3999L96.8999 44.4999L107.5 61.0999L97.6999 78.0999Z"
                fill="#14304C" />
            <path d="M158.6 64.6L144.1 46.1L150.5 64.2L123.3 91.1L158.6 64.6Z" fill="#14304C" />
            <path d="M79.4 41.9L92.2 60.1L80.1 36.4L64.2 53L79.4 41.9Z" fill="#14304C" />
            <path d="M-3.70004 164.7L218.7 164.7L218.7 -50.9001L-3.70004 -50.9001L-3.70004 164.7Z"
                fill="url(#paint0_linear_40_80)" />
            <path d="M0 47.8V39L9 47.8H10.3V50.7H11.5V44.6L31.9 64.9H20.3L14.6 59.2H11.4L0 47.8Z"
                fill="#FF3215" />
            <path
                d="M44.3001 65.1999H34.7001L22.6001 53.0999H25.8001V50.7999H20.1001L8.1001 38.7H15.0001V41.4H20.5001L44.3001 65.1999ZM35.0001 64.4H42.4001L20.1001 42.0999H14.1001V39.4H9.8001L20.3001 50H26.5001V53.9H24.4001L34.9001 64.4H35.0001Z"
                fill="#FF3215" />
            <path
                d="M26.2001 39H35.3001L61.1001 64.9H49.7001L35.3001 50.4V47.5H31.9001L26.1001 41.7L26.2001 39Z"
                fill="#FF3215" />
            <path
                d="M56.5 48.1H49.5999L40.2 38.6H47L56.5 48.1ZM50 47.3H54.5999L46.7 39.4H42.0999L49.9 47.3H50Z"
                fill="#FF3215" />
            <path d="M58 53.2V39L66.1 47.1V56H67.1V47.7L84.3 64.9H66.6L63.9 62.2V59L58 53.2Z"
                fill="#FF3215" />
        </g>
        <path
            d="M58.1136 41V23.5455H64.0114C65.375 23.5455 66.4943 23.7784 67.3693 24.2443C68.2443 24.7045 68.892 25.3381 69.3125 26.1449C69.733 26.9517 69.9432 27.8693 69.9432 28.8977C69.9432 29.9261 69.733 30.8381 69.3125 31.6335C68.892 32.429 68.2472 33.054 67.3778 33.5085C66.5085 33.9574 65.3977 34.1818 64.0455 34.1818H59.2727V32.2727H63.9773C64.9091 32.2727 65.6591 32.1364 66.2273 31.8636C66.8011 31.5909 67.2159 31.2045 67.4716 30.7045C67.733 30.1989 67.8636 29.5966 67.8636 28.8977C67.8636 28.1989 67.733 27.5881 67.4716 27.0653C67.2102 26.5426 66.7926 26.1392 66.2188 25.8551C65.6449 25.5653 64.8864 25.4205 63.9432 25.4205H60.2273V41H58.1136ZM66.3295 33.1591L70.625 41H68.1705L63.9432 33.1591H66.3295ZM78.5405 41.2727C77.2791 41.2727 76.1911 40.9943 75.2763 40.4375C74.3672 39.875 73.6655 39.0909 73.1712 38.0852C72.6825 37.0739 72.4382 35.8977 72.4382 34.5568C72.4382 33.2159 72.6825 32.0341 73.1712 31.0114C73.6655 29.983 74.353 29.1818 75.2337 28.608C76.12 28.0284 77.1541 27.7386 78.3359 27.7386C79.0178 27.7386 79.6911 27.8523 80.3558 28.0795C81.0206 28.3068 81.6257 28.6761 82.1712 29.1875C82.7166 29.6932 83.1513 30.3636 83.4751 31.1989C83.799 32.0341 83.9609 33.0625 83.9609 34.2841V35.1364H73.87V33.3977H81.9155C81.9155 32.6591 81.7678 32 81.4723 31.4205C81.1825 30.8409 80.7678 30.3835 80.228 30.0483C79.6939 29.7131 79.0632 29.5455 78.3359 29.5455C77.5348 29.5455 76.8416 29.7443 76.2564 30.142C75.6768 30.5341 75.2308 31.0455 74.9183 31.6761C74.6058 32.3068 74.4496 32.983 74.4496 33.7045V34.8636C74.4496 35.8523 74.62 36.6903 74.9609 37.3778C75.3075 38.0597 75.7876 38.5795 76.4013 38.9375C77.0149 39.2898 77.728 39.4659 78.5405 39.4659C79.0689 39.4659 79.5462 39.392 79.9723 39.2443C80.4041 39.0909 80.7763 38.8636 81.0888 38.5625C81.4013 38.2557 81.6428 37.875 81.8132 37.4205L83.7564 37.9659C83.5518 38.625 83.2081 39.2045 82.7251 39.7045C82.2422 40.1989 81.6456 40.5852 80.9354 40.8636C80.2251 41.1364 79.4268 41.2727 78.5405 41.2727ZM92.3047 46.1818C91.3331 46.1818 90.4979 46.0568 89.799 45.8068C89.1001 45.5625 88.5178 45.2386 88.0518 44.8352C87.5916 44.4375 87.2251 44.0114 86.9524 43.5568L88.5547 42.4318C88.7365 42.6705 88.9666 42.9432 89.245 43.25C89.5234 43.5625 89.9041 43.8324 90.3871 44.0597C90.8757 44.2926 91.5149 44.4091 92.3047 44.4091C93.3615 44.4091 94.2337 44.1534 94.9212 43.642C95.6087 43.1307 95.9524 42.3295 95.9524 41.2386V38.5795H95.782C95.6342 38.8182 95.424 39.1136 95.1513 39.4659C94.8842 39.8125 94.4979 40.1222 93.9922 40.3949C93.4922 40.6619 92.8161 40.7955 91.9638 40.7955C90.907 40.7955 89.9581 40.5455 89.1172 40.0455C88.282 39.5455 87.62 38.8182 87.1314 37.8636C86.6484 36.9091 86.407 35.75 86.407 34.3864C86.407 33.0455 86.6428 31.8778 87.1143 30.8835C87.5859 29.8835 88.2422 29.1108 89.0831 28.5653C89.924 28.0142 90.8956 27.7386 91.9979 27.7386C92.8501 27.7386 93.5263 27.8807 94.0263 28.1648C94.532 28.4432 94.9183 28.7614 95.1854 29.1193C95.4581 29.4716 95.6683 29.7614 95.8161 29.9886H96.0206V27.9091H97.9638V41.375C97.9638 42.5 97.7081 43.4148 97.1967 44.1193C96.6911 44.8295 96.0092 45.3494 95.1513 45.679C94.299 46.0142 93.3501 46.1818 92.3047 46.1818ZM92.2365 38.9886C93.0433 38.9886 93.7251 38.804 94.282 38.4347C94.8388 38.0653 95.2621 37.5341 95.5518 36.8409C95.8416 36.1477 95.9865 35.3182 95.9865 34.3523C95.9865 33.4091 95.8445 32.5767 95.5604 31.8551C95.2763 31.1335 94.8558 30.5682 94.299 30.1591C93.7422 29.75 93.0547 29.5455 92.2365 29.5455C91.3842 29.5455 90.674 29.7614 90.1058 30.1932C89.5433 30.625 89.12 31.2045 88.8359 31.9318C88.5575 32.6591 88.4183 33.4659 88.4183 34.3523C88.4183 35.2614 88.5604 36.0653 88.8445 36.7642C89.1342 37.4574 89.5604 38.0028 90.1229 38.4006C90.6911 38.7926 91.3956 38.9886 92.2365 38.9886ZM101.646 41V27.9091H103.657V41H101.646ZM102.668 25.7273C102.276 25.7273 101.938 25.5938 101.654 25.3267C101.376 25.0597 101.237 24.7386 101.237 24.3636C101.237 23.9886 101.376 23.6676 101.654 23.4006C101.938 23.1335 102.276 23 102.668 23C103.06 23 103.396 23.1335 103.674 23.4006C103.958 23.6676 104.1 23.9886 104.1 24.3636C104.1 24.7386 103.958 25.0597 103.674 25.3267C103.396 25.5938 103.06 25.7273 102.668 25.7273ZM116.614 30.8409L114.807 31.3523C114.693 31.0511 114.526 30.7585 114.304 30.4744C114.088 30.1847 113.793 29.946 113.418 29.7585C113.043 29.571 112.562 29.4773 111.977 29.4773C111.176 29.4773 110.509 29.6619 109.974 30.0312C109.446 30.3949 109.182 30.858 109.182 31.4205C109.182 31.9205 109.364 32.3153 109.727 32.6051C110.091 32.8949 110.659 33.1364 111.432 33.3295L113.375 33.8068C114.545 34.0909 115.418 34.5256 115.991 35.1108C116.565 35.6903 116.852 36.4375 116.852 37.3523C116.852 38.1023 116.636 38.7727 116.205 39.3636C115.778 39.9545 115.182 40.4205 114.415 40.7614C113.648 41.1023 112.756 41.2727 111.739 41.2727C110.403 41.2727 109.298 40.983 108.423 40.4034C107.548 39.8239 106.994 38.9773 106.761 37.8636L108.67 37.3864C108.852 38.0909 109.196 38.6193 109.702 38.9716C110.213 39.3239 110.881 39.5 111.705 39.5C112.642 39.5 113.386 39.3011 113.938 38.9034C114.494 38.5 114.773 38.017 114.773 37.4545C114.773 37 114.614 36.6193 114.295 36.3125C113.977 36 113.489 35.767 112.83 35.6136L110.648 35.1023C109.449 34.8182 108.568 34.3778 108.006 33.7812C107.449 33.179 107.17 32.4261 107.17 31.5227C107.17 30.7841 107.378 30.1307 107.793 29.5625C108.213 28.9943 108.784 28.5483 109.506 28.2244C110.233 27.9006 111.057 27.7386 111.977 27.7386C113.273 27.7386 114.29 28.0227 115.028 28.5909C115.773 29.1591 116.301 29.9091 116.614 30.8409ZM125.573 27.9091V29.6136H118.789V27.9091H125.573ZM120.766 24.7727H122.778V37.25C122.778 37.8182 122.86 38.2443 123.025 38.5284C123.195 38.8068 123.411 38.9943 123.673 39.0909C123.94 39.1818 124.221 39.2273 124.516 39.2273C124.738 39.2273 124.92 39.2159 125.062 39.1932C125.204 39.1648 125.317 39.142 125.403 39.125L125.812 40.9318C125.675 40.983 125.485 41.0341 125.241 41.0852C124.996 41.142 124.687 41.1705 124.312 41.1705C123.744 41.1705 123.187 41.0483 122.641 40.804C122.102 40.5597 121.653 40.1875 121.295 39.6875C120.942 39.1875 120.766 38.5568 120.766 37.7955V24.7727ZM133.947 41.2727C132.685 41.2727 131.597 40.9943 130.683 40.4375C129.773 39.875 129.072 39.0909 128.577 38.0852C128.089 37.0739 127.844 35.8977 127.844 34.5568C127.844 33.2159 128.089 32.0341 128.577 31.0114C129.072 29.983 129.759 29.1818 130.64 28.608C131.526 28.0284 132.56 27.7386 133.742 27.7386C134.424 27.7386 135.097 27.8523 135.762 28.0795C136.427 28.3068 137.032 28.6761 137.577 29.1875C138.123 29.6932 138.558 30.3636 138.881 31.1989C139.205 32.0341 139.367 33.0625 139.367 34.2841V35.1364H129.276V33.3977H137.322C137.322 32.6591 137.174 32 136.879 31.4205C136.589 30.8409 136.174 30.3835 135.634 30.0483C135.1 29.7131 134.469 29.5455 133.742 29.5455C132.941 29.5455 132.248 29.7443 131.663 30.142C131.083 30.5341 130.637 31.0455 130.325 31.6761C130.012 32.3068 129.856 32.983 129.856 33.7045V34.8636C129.856 35.8523 130.026 36.6903 130.367 37.3778C130.714 38.0597 131.194 38.5795 131.808 38.9375C132.421 39.2898 133.134 39.4659 133.947 39.4659C134.475 39.4659 134.952 39.392 135.379 39.2443C135.81 39.0909 136.183 38.8636 136.495 38.5625C136.808 38.2557 137.049 37.875 137.219 37.4205L139.163 37.9659C138.958 38.625 138.614 39.2045 138.131 39.7045C137.648 40.1989 137.052 40.5852 136.342 40.8636C135.631 41.1364 134.833 41.2727 133.947 41.2727ZM142.427 41V27.9091H144.37V29.8864H144.506C144.745 29.2386 145.177 28.7131 145.802 28.3097C146.427 27.9062 147.131 27.7045 147.915 27.7045C148.063 27.7045 148.248 27.7074 148.469 27.7131C148.691 27.7187 148.859 27.7273 148.972 27.7386V29.7841C148.904 29.767 148.748 29.7415 148.504 29.7074C148.265 29.6676 148.012 29.6477 147.745 29.6477C147.109 29.6477 146.54 29.7812 146.04 30.0483C145.546 30.3097 145.154 30.6733 144.864 31.1392C144.58 31.5994 144.438 32.125 144.438 32.7159V41H142.427Z"
            fill="white" />
    </g>
    <defs>
        <linearGradient id="paint0_linear_40_80" x1="107.5" y1="-50.9001" x2="107.5" y2="164.7"
            gradientUnits="userSpaceOnUse">
            <stop stop-color="#101824" stop-opacity="0.2" />
            <stop offset="0.3" stop-color="#101824" stop-opacity="0.6" />
            <stop offset="0.6" stop-color="#101824" stop-opacity="0.8" />
            <stop offset="1" stop-color="#101824" stop-opacity="0.9" />
        </linearGradient>
        <clipPath id="clip0_40_80">
            <rect width="215" height="65" fill="white" />
        </clipPath>
    </defs>
</svg>