<svg width="116" height="116" viewBox="0 0 116 116" fill="none" xmlns="http://www.w3.org/2000/svg">
<path d="M62.3443 16.9306C67.0199 16.9306 70.8114 13.1406 70.8114 8.46528C70.8114 3.78971 67.0199 0 62.3443 0C57.6706 0 53.8806 3.78971 53.8806 8.46528C53.8806 13.1406 57.6706 16.9306 62.3443 16.9306Z" fill="#FF3215"/>
<path d="M84.3263 95.1551H63.9928V80.3493H43.667V65.5405H23.3344V50.7314H6.01727V56.7675H17.3001V71.5763H37.6327V86.3854H57.9585V101.191H78.2927V116H104.272V109.966L84.3263 109.964V95.1551Z" fill="#FF3215"/>
<path d="M108.293 41.0629C108.149 40.1018 107.254 39.4389 106.291 39.583L102.227 40.1936L101.88 37.8838C101.736 36.9442 100.862 36.3008 99.924 36.4399L99.4985 36.5038C99.4394 36.1109 99.3037 35.7228 99.0794 35.366L93.2121 25.9838C92.5787 24.972 91.6144 24.2123 90.4814 23.8342L79.8588 18.8804C76.2662 17.2056 72.108 17.3858 68.662 19.293L66.4535 32.7268L58.2682 25.7871L51.7247 29.9076L42.1676 25.4219C40.6827 24.5902 38.8099 25.0832 37.9277 26.5366L37.8065 26.733C37.371 27.4551 37.2369 28.3176 37.4399 29.1348C37.6411 29.9518 38.1636 30.6539 38.887 31.086L50.2778 37.8833C51.6939 38.7298 53.4212 38.882 54.9647 38.2993L61.7111 34.665L64.9099 47.5682L54.2769 47.5143C52.4859 47.5093 50.7851 48.3034 49.6423 49.6834C48.4996 51.0634 48.0365 52.8822 48.3768 54.6421L51.9537 73.0576C52.3498 75.0973 54.2832 76.4628 56.3377 76.1552L56.4915 76.1321C58.5265 75.8276 59.9686 73.9892 59.7803 71.9411L58.5689 58.7461L74.6138 59.1195C76.9173 59.1718 79.1199 58.1779 80.6048 56.415C82.0897 54.6535 82.6937 52.3124 82.2501 50.0499L81.8391 47.9644L78.5395 29.341L87.0433 30.5966L93.2642 37.8113C92.8976 38.1846 92.6831 38.6953 92.7649 39.252L93.112 41.5652L89.0504 42.1758C88.0877 42.3199 87.4264 43.2168 87.5721 44.1795L89.2402 55.2788C89.3862 56.2396 90.2815 56.9028 91.2426 56.7587L108.484 54.1655C109.445 54.0214 110.107 53.1242 109.963 52.1617L108.293 41.0629ZM66.8726 38.1749C66.8726 37.5954 67.3425 37.1271 67.9203 37.1271C68.498 37.1271 68.9679 37.5954 68.9679 38.1749C68.9679 38.7544 68.498 39.2225 67.9203 39.2225C67.3425 39.2225 66.8726 38.7544 66.8726 38.1749ZM69.0368 45.09C68.4588 45.09 67.9889 44.622 67.9889 44.0424C67.9889 43.4629 68.4588 42.9948 69.0368 42.9948C69.6145 42.9948 70.0844 43.4629 70.0844 44.0424C70.0844 44.622 69.6147 45.09 69.0368 45.09ZM94.4188 39.1147C95.3996 40.0674 96.9074 40.2475 98.0794 39.5041L98.1482 39.46C98.6426 39.1473 99.0094 38.7087 99.2419 38.2175L100.172 38.0768L100.244 38.1294L100.591 40.4408L94.7498 41.3182L94.4188 39.1147Z" fill="#FF3215"/>
<path d="M89.1901 87.1891C90.6143 88.6772 92.9669 88.7671 94.5008 87.3903L94.6107 87.2938C96.1397 85.922 96.3067 83.5825 94.9904 82.0029L86.2222 70.237L83.4259 56.6147C83.2361 56.8882 83.0412 57.1585 82.8251 57.4154C80.7396 59.8922 77.6839 61.3132 74.4441 61.3132L72.9542 61.2788L76.2235 71.9066C76.9798 73.4717 77.9637 74.919 79.1401 76.204L89.1901 87.1891Z" fill="#FF3215"/>
<path d="M62.0743 26.938L64.7771 28.3262L65.8952 25.3337L64.4366 22.2201L60.8923 24.4137L62.0743 26.938Z" fill="#FF3215"/>
</svg>
