<svg width="95" height="83" viewBox="0 0 95 83" fill="none" xmlns="http://www.w3.org/2000/svg">
<path d="M47.3252 22.3958C53.4517 22.3958 58.4183 17.4293 58.4183 11.3027C58.4183 5.17615 53.4517 0.209595 47.3252 0.209595C41.1986 0.209595 36.2321 5.17615 36.2321 11.3027C36.2321 17.4293 41.1986 22.3958 47.3252 22.3958Z" fill="#FF3215"/>
<path d="M86.1573 41.8221L75.8185 39.6655C72.2961 38.9276 68.8185 40.542 66.9799 43.4122C65.1943 42.495 63.2741 41.704 61.2315 41.0476V34.8997C61.2357 30.248 57.4277 26.4442 52.7925 26.4442H42.2213C37.5615 26.4442 33.77 30.248 33.77 34.8997V41.0801C31.7479 41.7242 29.8481 42.5152 28.0501 43.4366C26.2115 40.5541 22.7298 38.9276 19.2032 39.6655L8.85612 41.8221C4.31447 42.772 1.36684 47.277 2.31675 51.8349L4.91378 64.2408C5.85557 68.7864 10.3645 71.7341 14.9103 70.7841L18.184 70.0992C19.8228 72.5209 22.0896 74.7427 24.9923 76.6426C31.0382 80.6053 39.0249 82.7905 47.5006 82.7905C60.4691 82.7905 71.6397 77.5762 76.7847 70.0869L80.1114 70.7841C84.6531 71.7299 89.162 68.7864 90.1038 64.2408L92.7048 51.8349C93.6506 47.277 90.7029 42.772 86.1573 41.8221ZM47.4964 78.5547C39.8401 78.5547 32.6647 76.6263 27.3119 73.0998C25.4773 71.9011 23.9566 70.5681 22.7377 69.1412L25.245 68.6152C29.7948 67.6694 32.7424 63.1645 31.7925 58.6147L29.4646 47.4603C30.8222 46.7306 32.2491 46.0905 33.7656 45.5443V47.5787C33.7656 52.2222 37.5653 56.026 42.2169 56.026H52.7882C57.4277 56.026 61.2274 52.2182 61.2274 47.5787V45.4382C62.7724 45.9886 64.2238 46.6206 65.5693 47.3381L63.2087 58.6188C62.2669 63.1686 65.2103 67.6736 69.7601 68.6194L72.2918 69.1493C67.5709 74.7388 58.2308 78.5547 47.4964 78.5547Z" fill="#FF3215"/>
<path d="M83.9069 36.9788C90.0334 36.9788 95 32.0123 95 25.8857C95 19.7592 90.0334 14.7926 83.9069 14.7926C77.7803 14.7926 72.8138 19.7592 72.8138 25.8857C72.8138 32.0123 77.7803 36.9788 83.9069 36.9788Z" fill="#FF3215"/>
<path d="M13.369 36.7463C19.3701 35.4906 23.2025 29.6078 21.963 23.6107C20.6992 17.6177 14.8285 13.7692 8.82323 15.0249C2.83026 16.2764 -1.01833 22.1552 0.237377 28.1524C1.48912 34.1535 7.36793 37.9981 13.369 36.7463Z" fill="#FF3215"/>
</svg>
