<svg width="55" height="84" viewBox="0 0 55 84" fill="none" xmlns="http://www.w3.org/2000/svg">
<path d="M23.1352 0.257953C21.9733 -0.195822 20.6962 -0.0439533 19.666 0.658666C18.6359 1.36129 18.0449 2.52866 18.0449 3.77471V12.4532H5.12327C2.29266 12.4532 0 14.7458 0 17.5764V76.1957C0 77.568 1.00453 78.7354 2.36219 78.9385L35.808 83.9575C36.8967 84.1222 37.9671 83.8038 38.7996 83.0829C39.634 82.3638 40.0786 81.3208 40.0786 80.223V77.3558H49.6024C52.0506 77.3558 54.034 75.3724 54.034 72.926V13.959C54.034 12.9637 53.4229 12.0707 52.497 11.7103L23.1352 0.257953ZM26.8789 60.9668C26.6721 61.2047 26.3757 61.3364 26.0664 61.3364C26.0042 61.3364 25.942 61.3291 25.878 61.3181L5.41054 57.7172C5.03727 57.6532 4.72621 57.397 4.59081 57.0457C4.45358 56.6944 4.51396 56.2937 4.74451 55.9954L16.1657 41.2898C16.7384 40.5543 17.6149 40.1353 18.5279 40.1334C18.6999 40.1334 18.8738 40.1481 19.0476 40.1792C20.1399 40.3695 21.0347 41.1526 21.375 42.2065L27.0911 59.9257C27.21 60.288 27.1295 60.6814 26.8789 60.9668ZM34.8382 56.3998C34.6022 56.6688 34.2399 56.7987 33.8849 56.7383L29.8064 56.0192L25.5925 42.9531L25.5413 42.7939L26.0683 42.115C26.716 41.277 27.7754 40.8708 28.8165 41.0538C29.8577 41.2404 30.714 41.9815 31.0378 42.9915L35.0431 55.4063C35.1511 55.7521 35.0743 56.129 34.8382 56.3998ZM47.3006 71.9672H40.0768V25.6017C40.0768 23.7335 38.7356 22.1453 36.8857 21.8672L10.0215 17.8326H46.307C47.6043 17.8326 48.6509 18.881 48.6509 20.1765V70.6224C48.6472 71.3652 48.0453 71.9672 47.3006 71.9672Z" fill="#FF3215"/>
</svg>
