<svg width="91" height="91" viewBox="0 0 91 91" fill="none" xmlns="http://www.w3.org/2000/svg">
<path d="M45.4992 17.0726C48.6381 17.0726 51.1918 14.519 51.1918 11.3803C51.1918 8.24146 48.6381 5.6875 45.4992 5.6875C42.361 5.6875 39.808 8.24128 39.808 11.3803C39.808 14.5188 42.361 17.0726 45.4992 17.0726Z" fill="#FF3215"/>
<path d="M24.323 62.4417H66.677C67.4669 62.4417 68.1098 61.7989 68.1098 61.0089V53.1797C68.1098 52.3898 67.4669 51.747 66.677 51.747H52.3694C52.3738 51.6808 52.3796 51.6148 52.3796 51.5473V36.0008C52.3837 35.9576 52.3862 35.9138 52.3862 35.8695V22.412L57.5514 17.0031C58.3554 16.1608 58.9172 14.7593 58.9172 13.5949V2.3685C58.9172 1.06273 57.8548 0.000358727 56.5491 0.000358727C55.2433 0.000358727 54.1809 1.06273 54.1809 2.3685V13.5443C54.1671 13.6037 54.1217 13.7172 54.0912 13.7685L49.6154 18.456H41.3849L36.9091 13.7689C36.8783 13.7168 36.8327 13.6033 36.8191 13.5443V2.36814C36.8191 1.06237 35.7567 0 34.4509 0C33.1452 0 32.0828 1.06237 32.0828 2.36814V13.5945C32.0828 14.7588 32.6447 16.1603 33.449 17.0028L38.6138 22.4117V35.8692C38.6138 35.9725 38.6267 36.0727 38.6491 36.1692V51.547C38.6491 51.6144 38.6547 51.6804 38.6593 51.7466H24.323C23.5331 51.7466 22.8902 52.3895 22.8902 53.1794V61.0086C22.8902 61.7989 23.5331 62.4417 24.323 62.4417ZM44.3979 51.5472V37.2006H46.6308V51.5472C46.6308 51.6146 46.6364 51.6806 46.641 51.7468H44.3877C44.3922 51.6806 44.3979 51.6146 44.3979 51.5472Z" fill="#FF3215"/>
<path d="M65.4428 70.8192C65.4428 73.6358 67.7338 75.927 70.55 75.927C73.3657 75.927 75.6563 73.6358 75.6563 70.8192C75.6563 68.0029 73.3657 65.7117 70.55 65.7117C67.7338 65.7117 65.4428 68.0029 65.4428 70.8192Z" fill="#FF3215"/>
<path d="M81.2647 86.9868L76.4394 77.737C76.0681 77.0248 75.3376 76.5823 74.5333 76.5823C74.4989 76.5823 66.8899 76.5846 66.8634 76.5866C66.1108 76.6314 65.4382 77.0631 65.087 77.7368L60.2617 86.9866C59.7138 88.0368 60.1225 89.337 61.1723 89.8844C61.4353 90.0218 61.7169 90.102 62.0093 90.1228C62.0614 90.1266 62.1135 90.1285 62.1653 90.1285C62.9689 90.1285 63.699 89.6859 64.0705 88.9736L65.4651 86.3004V89.9404C65.4651 90.5244 65.9402 90.9995 66.5244 90.9995H74.8725C75.4569 90.9995 75.932 90.5244 75.932 89.9404V86.0534L77.4553 88.9736C77.8266 89.686 78.5568 90.1285 79.3607 90.1285C79.4127 90.1285 79.4646 90.1266 79.5164 90.123C79.809 90.102 80.0905 90.0216 80.3533 89.8846C81.4035 89.3374 81.8123 88.0373 81.2647 86.9868Z" fill="#FF3215"/>
<path d="M40.1884 70.8192C40.1884 73.6358 42.4794 75.927 45.2956 75.927C48.1113 75.927 50.4021 73.6358 50.4021 70.8192C50.4021 68.0029 48.1113 65.7117 45.2956 65.7117C42.4794 65.7117 40.1884 68.0029 40.1884 70.8192Z" fill="#FF3215"/>
<path d="M51.1852 77.737C50.8139 77.0248 50.0834 76.5823 49.2791 76.5823C49.2447 76.5823 41.6355 76.5846 41.609 76.5866C40.8562 76.6314 40.1836 77.0631 39.8327 77.7368L35.0075 86.9866C34.4595 88.0368 34.8683 89.337 35.9181 89.8844C36.1811 90.0218 36.4627 90.102 36.7548 90.1228C36.807 90.1266 36.8591 90.1285 36.9111 90.1285C37.7146 90.1285 38.4448 89.6859 38.8163 88.9736L40.2108 86.3002V89.9404C40.2108 90.5244 40.686 90.9995 41.2702 90.9995H49.6181C50.2025 90.9995 50.6776 90.5244 50.6776 89.9404V86.0534L52.2009 88.9736C52.5722 89.686 53.3024 90.1285 54.1065 90.1285C54.1585 90.1285 54.2103 90.1266 54.2622 90.123C54.5547 90.102 54.8363 90.0216 55.0991 89.8846C56.1493 89.337 56.5579 88.037 56.0101 86.9866L51.1852 77.737Z" fill="#FF3215"/>
<path d="M20.0236 75.927C22.8393 75.927 25.1301 73.6358 25.1301 70.8192C25.1301 68.0029 22.8394 65.7117 20.0236 65.7117C17.2076 65.7117 14.9166 68.0027 14.9166 70.8192C14.9166 73.6358 17.2076 75.927 20.0236 75.927Z" fill="#FF3215"/>
<path d="M25.9132 77.737C25.5419 77.0248 24.8114 76.5823 24.0071 76.5823C23.9727 76.5823 16.3169 76.5877 16.307 76.5884C15.5664 76.6427 14.9071 77.0721 14.5607 77.7368L9.7355 86.9866C9.18754 88.0368 9.59631 89.337 10.6461 89.8844C10.9091 90.0218 11.1909 90.102 11.483 90.1228C11.5352 90.1266 11.5872 90.1285 11.6391 90.1285C12.4426 90.1285 13.1728 89.6859 13.5443 88.9736L14.9388 86.3004V89.9404C14.9388 90.5244 15.414 90.9995 15.9982 90.9995H24.3463C24.9305 90.9995 25.4056 90.5244 25.4056 89.9404V86.053L26.9291 88.9736C27.3004 89.686 28.0306 90.1285 28.8345 90.1285C28.8865 90.1285 28.9384 90.1266 28.9902 90.123C29.2829 90.102 29.5645 90.0216 29.8273 89.8844C30.336 89.6191 30.7108 89.1716 30.8828 88.6244C31.055 88.077 31.0036 87.4955 30.7381 86.9866L25.9132 77.737Z" fill="#FF3215"/>
</svg>
